<svg width="5087" height="561" viewBox="0 0 5087 561" fill="none" xmlns="http://www.w3.org/2000/svg">
<path d="M878.932 1.18345C855.199 3.45012 844.399 5.31678 822.399 10.9168C790.932 18.9168 779.599 22.6501 760.932 31.5835C729.332 46.5168 702.399 69.4501 688.265 93.4501C674.265 117.583 667.999 142.517 663.332 192.917C659.999 229.85 659.999 333.85 663.332 366.917C668.799 420.783 674.665 441.05 692.665 467.317C708.799 491.05 728.932 511.85 746.799 523.183C775.732 541.583 841.599 556.783 898.932 558.383C929.865 559.317 946.265 557.183 985.465 547.45C1050.4 531.317 1086.53 504.917 1112.8 454.65C1129.47 422.783 1136.93 388.65 1140.27 328.917C1142.4 291.45 1139.2 211.05 1134.13 175.583C1124.4 107.583 1092.8 57.8501 1043.6 33.1835C1024.27 23.5835 993.065 13.1835 964.265 6.91678C941.465 1.98345 899.332 -0.816549 878.932 1.18345ZM926.265 132.383C955.599 134.517 987.865 142.783 995.065 149.983C997.332 152.117 1002 159.983 1005.6 167.45C1016.13 189.317 1016.53 193.05 1017.33 269.05C1018.13 358.783 1016.4 375.583 1004.4 393.85C997.999 403.717 988.932 411.85 978.132 417.317C962.932 425.05 930.132 429.05 894.265 427.717C846.265 425.85 828.399 422.783 807.332 412.783C796.665 407.717 796.399 407.45 791.732 393.45C785.199 373.717 782.665 340.117 782.665 272.25C782.665 199.717 785.999 165.717 794.132 156.383C805.732 143.183 846.399 133.717 903.599 131.05C905.865 131.05 915.999 131.583 926.265 132.383Z" fill="#1B4B86"/>
<path d="M2677.06 17.7168C2642.8 18.5168 2632.93 19.0502 2632 20.5168C2631.33 21.4502 2631.2 24.3835 2631.6 27.0502C2631.86 29.7168 2632.26 149.717 2632.26 293.717C2632.26 453.45 2632.8 556.384 2633.6 557.584C2635.33 560.25 2673.6 560.917 2718.26 559.05C2745.86 557.85 2751.86 557.317 2753.2 555.584C2754.26 553.984 2754.53 516.25 2754.26 407.184C2753.86 312.917 2754.26 260.117 2755.06 258.917C2756.13 257.183 2756.66 257.317 2758.4 259.583C2768.8 273.45 2775.73 283.317 2787.73 301.85C2795.46 313.85 2805.2 328.384 2809.2 334.25C2813.2 340.117 2822.26 353.584 2829.33 364.25C2836.26 374.917 2850.53 396.517 2860.93 412.25C2871.33 427.984 2884.26 448.117 2889.6 456.917C2900.26 474.383 2929.33 519.317 2942.4 538.25C2956.26 558.384 2951.86 556.65 2992.66 557.45C3043.2 558.25 3061.33 558.384 3062.13 557.584C3065.06 554.517 3065.6 501.984 3064.93 299.85C3064.13 75.7168 3063.6 19.1835 3062.4 17.9835C3061.46 16.9168 2948.53 17.5835 2946 18.5168C2944 19.3168 2943.86 31.7168 2944.53 155.45C2944.93 230.383 2944.8 293.717 2944.4 296.25C2943.86 299.717 2942.8 301.05 2940.66 301.317C2937.6 301.717 2934.66 298.65 2924 283.45C2920.8 278.917 2914.26 269.583 2909.46 262.783C2904.53 255.85 2894.26 240.383 2886.53 228.25C2878.93 216.117 2859.2 186.65 2842.8 162.917C2815.46 123.05 2784.13 77.0502 2755.73 34.7835L2744.53 17.9835L2738.26 17.0502C2734.8 16.6502 2729.46 16.3835 2726.4 16.5168C2723.33 16.6502 2701.2 17.1835 2677.06 17.7168Z" fill="#1B4B86"/>
<path d="M3520.27 17.5833C3477.73 18.5167 3457.2 19.7166 3453.73 21.5833C3452.67 22.1166 3449.87 27.9833 3447.47 34.3833C3445.2 40.9166 3441.07 51.9833 3438.4 58.9166C3435.6 65.85 3429.6 82.65 3424.93 96.25C3420.27 109.85 3412.8 131.05 3408.27 143.583C3403.87 155.983 3396.27 177.317 3391.6 190.917C3381.73 219.717 3372.13 246.65 3367.33 258.917C3363.47 268.783 3347.87 312.25 3340.27 334.25C3337.6 342.25 3329.87 363.317 3323.2 380.917C3316.53 398.517 3303.6 433.85 3294.27 459.583C3285.07 485.183 3276.53 508.65 3275.33 511.583C3271.73 520.783 3260.27 555.45 3260.27 557.183C3260.27 559.183 3315.47 559.45 3359.07 557.717C3387.73 556.65 3389.87 555.85 3392.27 546.65C3393.07 543.45 3395.47 535.45 3397.6 528.917C3399.73 522.25 3402.13 513.45 3402.93 509.183C3403.87 504.65 3405.33 501.05 3406.67 500.383C3409.33 499.05 3658.13 497.583 3660.27 498.917C3662.4 500.25 3671.73 528.117 3674.27 540.783C3677.07 554.517 3677.87 555.85 3683.87 556.917C3690.53 557.983 3796.53 558.917 3804.67 557.983C3812.13 557.05 3813.33 555.317 3810.53 549.183C3803.2 533.85 3798.93 523.317 3790.8 500.383C3785.6 486.117 3775.07 457.583 3767.33 437.05C3759.6 416.383 3750.93 392.917 3748.13 384.917C3745.33 376.783 3737.07 353.45 3729.6 332.917C3722.13 312.383 3712.8 286.517 3708.93 275.583C3699.2 248.117 3681.73 200.383 3674.27 180.25C3670.8 171.05 3665.47 156.383 3662.27 147.583C3659.2 138.783 3651.47 116.917 3644.93 98.9166C3638.53 80.9166 3629.73 55.7166 3625.47 42.9166C3621.07 30.1166 3616.8 18.9167 3616 17.9833C3614.4 16.1167 3596 15.9833 3520.27 17.5833ZM3539.87 164.517C3545.73 170.917 3551.73 186.25 3582.93 275.583C3588.67 291.717 3598.13 318.65 3604.13 335.583C3610.13 352.383 3614.8 367.717 3614.67 369.583L3614.27 372.917L3536.67 373.317C3463.73 373.583 3458.93 373.45 3457.73 371.317C3456 367.983 3470.53 322.783 3488.27 276.25C3492 266.383 3500.93 241.183 3507.87 220.25C3522.13 177.717 3524.4 172.117 3529.07 165.983C3532.93 160.783 3536.13 160.383 3539.87 164.517Z" fill="#1B4B86"/>
<path d="M4014.27 17.7166C3996 18.3833 3980.13 19.1833 3979.2 19.5833C3977.87 20.1166 3977.6 21.9833 3978.13 26.65C3978.67 31.1833 3980.8 545.983 3980.4 557.183C3980.27 558.517 3989.33 558.917 4022 558.783C4044.8 558.65 4071.6 558.25 4081.33 557.717L4099.07 556.917L4098.67 445.583C4098 268.783 4098.13 260.517 4100.8 257.85C4103.07 255.717 4103.47 255.983 4109.07 262.25C4112.4 265.85 4119.07 275.45 4123.87 283.583C4128.8 291.583 4143.33 314.383 4156.27 334.25C4205.47 409.583 4261.33 495.85 4270.8 510.917C4280.8 527.183 4294.53 547.05 4298.53 551.183C4300.27 553.05 4304.67 555.45 4308 556.25C4321.47 559.717 4405.73 559.317 4409.2 555.717C4410.27 554.65 4409.73 24.9166 4408.67 20.5166L4408 17.5833L4349.73 17.85L4291.6 18.25L4290.93 159.583C4290.53 237.317 4290 301.05 4289.87 301.183C4288.8 302.383 4284.13 301.183 4281.33 299.05C4279.6 297.583 4272.53 287.583 4265.6 276.65C4258.8 265.85 4250.4 253.05 4247.07 248.25C4243.73 243.583 4235.6 231.45 4228.93 221.45C4222.4 211.45 4208.53 190.917 4198.4 175.983C4165.87 128.65 4162.8 124.117 4143.07 94.9166C4118.4 58.25 4120.67 61.45 4103.87 38.65C4096 27.9833 4088.4 18.65 4087.2 18.1166C4083.6 16.65 4050.8 16.3833 4014.27 17.7166Z" fill="#1B4B86"/>
<path d="M1.86542 18.7834C0.665422 19.4501 0.265422 34.6501 0.532089 80.3834L0.932089 140.917L90.1321 141.317C153.332 141.45 179.865 141.983 181.199 143.05C182.665 144.383 182.932 179.85 182.932 351.05V557.583L186.132 558.383C187.865 558.783 214.532 558.917 245.465 558.65C286.665 558.383 301.865 557.85 303.065 556.65C304.265 555.45 304.532 507.85 304.399 350.517C304.132 182.65 304.399 145.85 305.865 144.65C306.932 143.717 334.932 142.917 387.599 142.383C431.599 141.983 470.799 141.183 474.665 140.783L481.599 139.85V78.6501V17.4501L242.532 17.5834C110.932 17.7167 2.66542 18.2501 1.86542 18.7834Z" fill="#1B4B86"/>
<path d="M1332.27 19.1833C1332 55.85 1332.8 403.183 1333.47 467.583L1334.27 558.25L1387.07 557.85C1416.13 557.717 1442.53 557.05 1445.73 556.517L1451.6 555.45L1452.27 524.25C1452.67 507.05 1453.33 492.25 1453.87 491.45C1454.53 490.383 1476.8 489.717 1527.87 489.183C1568 488.783 1606.4 487.85 1612.93 487.05C1638.27 484.117 1660.8 477.45 1689.6 464.25C1734.27 443.983 1765.73 416.517 1792.93 374.25C1806.27 353.583 1814.27 334.65 1824.13 300.25C1833.73 266.383 1834.67 241.45 1827.07 209.583C1811.6 143.85 1782.27 96.5166 1735.73 61.85C1697.73 33.7166 1665.47 22.1166 1615.6 18.9166C1582.8 16.9166 1332.27 17.1833 1332.27 19.1833ZM1619.6 143.45C1629.33 143.983 1633.2 144.783 1640.67 148.117C1650.13 152.383 1671.2 168.383 1678.8 177.05C1696.93 197.717 1712 234.783 1710.53 254.917C1709.73 265.85 1701.73 290.783 1696.13 299.583C1679.87 325.583 1654.27 345.983 1628.27 353.717C1618.4 356.65 1616.8 356.783 1537.07 357.317C1492.4 357.583 1455.47 357.317 1454.8 356.65C1453.33 355.183 1452.53 152.783 1454 147.85C1454.53 145.85 1456.4 143.583 1458 143.05C1460.8 141.85 1593.33 142.383 1619.6 143.45Z" fill="#1B4B86"/>
<path d="M2017.87 18.9169L2001.33 19.5836L2001.47 95.5836C2001.73 320.784 2003.47 556.384 2004.8 557.184C2006.53 558.25 2442.53 557.717 2445.2 556.65C2446.53 556.117 2446.93 554.784 2446.4 552.384C2445.87 550.517 2445.2 521.717 2444.67 488.517C2444.27 454.25 2443.33 427.85 2442.67 427.45C2442 427.05 2370.67 426.784 2284 426.784C2165.47 427.05 2126.27 426.65 2124.8 425.45C2122.27 423.45 2122.13 389.184 2124.67 384.25L2126.4 380.917L2254 380.25C2344.67 379.717 2382 379.05 2383.07 377.984C2384.13 376.917 2384.13 359.85 2383.33 316.117L2382.27 255.584L2252.93 254.917L2123.6 254.25V199.984C2123.6 165.584 2124.13 145.184 2124.93 144.384C2125.73 143.584 2177.2 142.784 2266.93 142.25C2344.27 141.717 2415.47 140.917 2424.93 140.517L2442.27 139.584L2443.07 89.5836C2443.6 62.1169 2444 35.3169 2444.13 30.2502C2444.4 25.0502 2444.4 20.1169 2444.4 19.1836C2444.27 17.9836 2402.53 17.5836 2239.33 17.8502C2126.53 17.9836 2026.93 18.5169 2017.87 18.9169Z" fill="#1B4B86"/>
<path d="M4607.6 19.3166C4607.2 20.1166 4607.07 47.85 4607.2 80.9166L4607.6 140.917L4695.2 141.583C4743.33 141.983 4783.2 142.783 4783.87 143.317C4784.4 143.983 4785.07 232.917 4785.33 340.917C4785.6 449.05 4786.13 542.117 4786.67 547.85L4787.6 558.25H4845.6C4877.47 558.25 4904.67 557.85 4906 557.317C4908.13 556.383 4908.27 546.383 4908.4 374.65C4908.53 182.383 4909.07 146.917 4912 143.983C4913.33 142.65 4929.47 142.117 4986.67 141.45C5026.8 141.05 5065.47 140.117 5072.53 139.583L5085.47 138.517L5085.87 79.7166C5086.13 47.45 5086 20.1166 5085.73 19.1833C5085.07 16.7833 4608.53 16.7833 4607.6 19.3166Z" fill="#1B4B86"/>
</svg>
